<svg class="main-svg" xmlns="http://www.w3.org/2000/svg" xmlns:xlink="http://www.w3.org/1999/xlink" width="700" height="500" style="" viewBox="0 0 700 500"><rect x="0" y="0" width="700" height="500" style="fill: rgb(255, 255, 255); fill-opacity: 1;"/><defs id="defs-041cf7"><g class="clips"><clipPath id="clip041cf7xyplot" class="plotclip"><rect width="540" height="288"/></clipPath><clipPath class="axesclip" id="clip041cf7x"><rect x="80" y="0" width="540" height="500"/></clipPath><clipPath class="axesclip" id="clip041cf7y"><rect x="0" y="100" width="700" height="288"/></clipPath><clipPath class="axesclip" id="clip041cf7xy"><rect x="80" y="100" width="540" height="288"/></clipPath></g><g class="gradients"/></defs><g class="bglayer"><rect class="bg" x="80" y="100" width="540" height="288" style="fill: rgb(229, 236, 246); fill-opacity: 1; stroke-width: 0;"/></g><g class="layer-below"><g class="imagelayer"/><g class="shapelayer"/></g><g class="cartesianlayer"><g class="subplot xy"><g class="layer-subplot"><g class="shapelayer"/><g class="imagelayer"/></g><g class="gridlayer"><g class="x"><path class="xgrid crisp" transform="translate(97.8,0)" d="M0,100v288" style="stroke: rgb(255, 255, 255); stroke-opacity: 1; stroke-width: 1px;"/><path class="xgrid crisp" transform="translate(115.6,0)" d="M0,100v288" style="stroke: rgb(255, 255, 255); stroke-opacity: 1; stroke-width: 1px;"/><path class="xgrid crisp" transform="translate(133.41,0)" d="M0,100v288" style="stroke: rgb(255, 255, 255); stroke-opacity: 1; stroke-width: 1px;"/><path class="xgrid crisp" transform="translate(151.20999999999998,0)" d="M0,100v288" style="stroke: rgb(255, 255, 255); stroke-opacity: 1; stroke-width: 1px;"/><path class="xgrid crisp" transform="translate(169.01,0)" d="M0,100v288" style="stroke: rgb(255, 255, 255); stroke-opacity: 1; stroke-width: 1px;"/><path class="xgrid crisp" transform="translate(186.81,0)" d="M0,100v288" style="stroke: rgb(255, 255, 255); stroke-opacity: 1; stroke-width: 1px;"/><path class="xgrid crisp" transform="translate(204.62,0)" d="M0,100v288" style="stroke: rgb(255, 255, 255); stroke-opacity: 1; stroke-width: 1px;"/><path class="xgrid crisp" transform="translate(222.42,0)" d="M0,100v288" style="stroke: rgb(255, 255, 255); stroke-opacity: 1; stroke-width: 1px;"/><path class="xgrid crisp" transform="translate(240.22,0)" d="M0,100v288" style="stroke: rgb(255, 255, 255); stroke-opacity: 1; stroke-width: 1px;"/><path class="xgrid crisp" transform="translate(258.02,0)" d="M0,100v288" style="stroke: rgb(255, 255, 255); stroke-opacity: 1; stroke-width: 1px;"/><path class="xgrid crisp" transform="translate(275.82,0)" d="M0,100v288" style="stroke: rgb(255, 255, 255); stroke-opacity: 1; stroke-width: 1px;"/><path class="xgrid crisp" transform="translate(293.63,0)" d="M0,100v288" style="stroke: rgb(255, 255, 255); stroke-opacity: 1; stroke-width: 1px;"/><path class="xgrid crisp" transform="translate(311.43,0)" d="M0,100v288" style="stroke: rgb(255, 255, 255); stroke-opacity: 1; stroke-width: 1px;"/><path class="xgrid crisp" transform="translate(329.23,0)" d="M0,100v288" style="stroke: rgb(255, 255, 255); stroke-opacity: 1; stroke-width: 1px;"/><path class="xgrid crisp" transform="translate(347.03,0)" d="M0,100v288" style="stroke: rgb(255, 255, 255); stroke-opacity: 1; stroke-width: 1px;"/><path class="xgrid crisp" transform="translate(364.84,0)" d="M0,100v288" style="stroke: rgb(255, 255, 255); stroke-opacity: 1; stroke-width: 1px;"/><path class="xgrid crisp" transform="translate(382.64,0)" d="M0,100v288" style="stroke: rgb(255, 255, 255); stroke-opacity: 1; stroke-width: 1px;"/><path class="xgrid crisp" transform="translate(400.44,0)" d="M0,100v288" style="stroke: rgb(255, 255, 255); stroke-opacity: 1; stroke-width: 1px;"/><path class="xgrid crisp" transform="translate(418.24,0)" d="M0,100v288" style="stroke: rgb(255, 255, 255); stroke-opacity: 1; stroke-width: 1px;"/><path class="xgrid crisp" transform="translate(436.04,0)" d="M0,100v288" style="stroke: rgb(255, 255, 255); stroke-opacity: 1; stroke-width: 1px;"/><path class="xgrid crisp" transform="translate(453.85,0)" d="M0,100v288" style="stroke: rgb(255, 255, 255); stroke-opacity: 1; stroke-width: 1px;"/><path class="xgrid crisp" transform="translate(471.65,0)" d="M0,100v288" style="stroke: rgb(255, 255, 255); stroke-opacity: 1; stroke-width: 1px;"/><path class="xgrid crisp" transform="translate(489.45,0)" d="M0,100v288" style="stroke: rgb(255, 255, 255); stroke-opacity: 1; stroke-width: 1px;"/><path class="xgrid crisp" transform="translate(507.25,0)" d="M0,100v288" style="stroke: rgb(255, 255, 255); stroke-opacity: 1; stroke-width: 1px;"/><path class="xgrid crisp" transform="translate(525.05,0)" d="M0,100v288" style="stroke: rgb(255, 255, 255); stroke-opacity: 1; stroke-width: 1px;"/><path class="xgrid crisp" transform="translate(542.86,0)" d="M0,100v288" style="stroke: rgb(255, 255, 255); stroke-opacity: 1; stroke-width: 1px;"/><path class="xgrid crisp" transform="translate(560.6600000000001,0)" d="M0,100v288" style="stroke: rgb(255, 255, 255); stroke-opacity: 1; stroke-width: 1px;"/><path class="xgrid crisp" transform="translate(578.46,0)" d="M0,100v288" style="stroke: rgb(255, 255, 255); stroke-opacity: 1; stroke-width: 1px;"/><path class="xgrid crisp" transform="translate(596.26,0)" d="M0,100v288" style="stroke: rgb(255, 255, 255); stroke-opacity: 1; stroke-width: 1px;"/><path class="xgrid crisp" transform="translate(614.07,0)" d="M0,100v288" style="stroke: rgb(255, 255, 255); stroke-opacity: 1; stroke-width: 1px;"/></g><g class="y"><path class="ygrid crisp" transform="translate(0,307.31)" d="M80,0h540" style="stroke: rgb(255, 255, 255); stroke-opacity: 1; stroke-width: 1px;"/><path class="ygrid crisp" transform="translate(0,240.62)" d="M80,0h540" style="stroke: rgb(255, 255, 255); stroke-opacity: 1; stroke-width: 1px;"/><path class="ygrid crisp" transform="translate(0,173.92000000000002)" d="M80,0h540" style="stroke: rgb(255, 255, 255); stroke-opacity: 1; stroke-width: 1px;"/><path class="ygrid crisp" transform="translate(0,107.22)" d="M80,0h540" style="stroke: rgb(255, 255, 255); stroke-opacity: 1; stroke-width: 1px;"/></g></g><g class="zerolinelayer"><path class="yzl zl crisp" transform="translate(0,374.01)" d="M80,0h540" style="stroke: rgb(255, 255, 255); stroke-opacity: 1; stroke-width: 2px;"/></g><path class="xlines-below"/><path class="ylines-below"/><g class="overlines-below"/><g class="xaxislayer-below"/><g class="yaxislayer-below"/><g class="overaxes-below"/><g class="plot" transform="translate(80,100)" clip-path="url('#clip041cf7xyplot')"><g class="scatterlayer mlayer"><g class="trace scatter trace8957bb" style="stroke-miterlimit: 2; opacity: 1;"><g class="fills"/><g class="errorbars"/><g class="lines"><path class="js-line" d="M0,43.37Q4.22,40.09 5.93,41.24C14.37,46.94 9.43,151.93 11.87,194.49C13.61,224.94 16.11,272.79 17.8,272.75C20.52,272.69 16.53,94.13 23.74,70.49C25.43,64.95 27.48,63.59 29.67,61.08C31.5,58.98 33.59,57.65 35.6,56.09C37.55,54.58 39.48,52.19 41.54,51.87C43.45,51.57 45.77,51.53 47.47,53.75C55.44,64.16 51.13,150.07 53.41,189.95C55.2,221.23 53.12,268.9 59.34,273.6C61.01,274.86 63.53,274.45 65.27,272.37C75.51,260.14 62.96,83.26 71.21,62.2C72.92,57.84 74.96,56.95 77.14,55.42C78.98,54.13 81.24,54.39 83.08,53.11C85.26,51.6 87.33,45.83 89.01,46.43C95.62,48.78 92.69,143.8 94.95,184.7C96.75,217.36 99.18,272.78 100.88,272.75C103.5,272.7 98.7,67.61 106.81,64.78C108.52,64.18 110.96,72.1 112.75,71.83C115.05,71.48 116.19,60.96 118.68,57.82C120.41,55.64 122.58,54.69 124.62,53.49C126.54,52.36 128.85,49.7 130.55,50.73C138.14,55.33 134.29,141.93 136.48,181.56C138.31,214.59 140.71,272.39 142.42,272.36C145,272.31 140.86,89.43 148.35,66.24C150.05,60.99 152.14,59.9 154.29,57.49C156.14,55.41 158.09,53.32 160.22,52.38C162.08,51.56 164.36,52.68 166.15,51.67C168.43,50.38 170.42,43.5 172.09,44.03C178.36,46.03 175.82,138.56 178.02,179.6C179.85,213.77 177.44,269 183.96,273.49C185.64,274.64 188.15,273.94 189.89,271.64C200.09,258.16 188.06,80.96 195.82,57.65C197.52,52.54 199.69,49.39 201.76,49.24C203.66,49.1 205.95,55.85 207.69,55.49C210.14,54.99 211.98,39.28 213.63,39.54C218.3,40.28 217.38,134.58 219.56,176.27C221.4,211.44 219.18,270.09 225.49,273.48C227.16,274.38 229.69,272.96 231.43,270.05C241.25,253.56 227.72,67.62 237.36,50.37C239.09,47.27 241.25,47.44 243.3,46.49C245.22,45.6 247.45,46 249.23,44.7C251.55,43 253.49,35.51 255.16,35.99C261.28,37.74 258.88,135.01 261.1,177.49C262.92,212.31 265.31,272.53 267.03,272.5C269.59,272.46 264.78,81.75 272.97,60.17C274.68,55.67 276.74,54.86 278.9,53.09C280.75,51.58 282.95,51.22 284.84,49.85C286.92,48.34 288.85,46.28 290.77,44.26C292.81,42.12 295.03,36.74 296.7,37.32C303.09,39.52 300.51,128.81 302.64,170.18C304.5,206.47 306.84,272.35 308.57,272.32C311.06,272.28 307.25,85.46 314.51,60.71C316.2,54.94 318.12,53.07 320.44,50.87C322.21,49.19 324.4,47.7 326.37,47.73C328.36,47.76 330.4,51.34 332.31,51.14C334.37,50.92 336.56,45.1 338.24,45.8C344.71,48.49 342.15,125.89 344.18,164.51C346.11,201.32 348.38,272.38 350.11,272.36C352.59,272.33 346.98,70.77 356.04,51.04C357.76,47.29 359.92,47.18 361.98,45.65C363.89,44.23 366.02,43.54 367.91,42.06C369.99,40.43 371.8,37.88 373.85,36.14C375.76,34.52 378.09,31.08 379.78,31.9C387.12,35.48 383.58,126.54 385.71,169.13C387.57,206.25 384.92,269.25 391.65,273.32C393.33,274.34 395.56,270.9 397.58,270.63C399.52,270.37 401.77,273.04 403.52,271.59C414.41,262.55 401.35,63.02 409.45,38.43C411.16,33.25 413.26,32.37 415.38,29.96C417.25,27.83 419.63,23.82 421.32,24.52C428.33,27.43 425.14,119.81 427.25,163.27C429.12,201.82 431.46,272.36 433.19,272.34C435.69,272.3 431.52,70.47 439.12,44.83C440.82,39.1 442.68,37.04 445.05,35.16C446.81,33.76 449.18,34.45 450.99,33.19C453.22,31.64 454.77,27.69 456.92,25.78C458.77,24.14 461.16,21.19 462.86,22.09C470.57,26.17 466.64,121.3 468.79,165.55C470.64,203.67 473.02,271.99 474.73,271.96C477.36,271.92 470.69,39.6 480.66,19.23C482.39,15.69 484.49,14.89 486.59,14.4C488.47,13.96 490.82,13.71 492.53,15.77C500.87,25.82 496.33,115.35 498.46,160.29C500.32,199.6 502.26,270.79 504.4,270.81C506.25,270.83 508.36,188.16 510.33,188.16C512.31,188.16 514.58,271.59 516.26,271.55C519.03,271.49 513.79,67.62 522.2,44.95C523.91,40.34 526.03,39.73 528.13,37.68C530.01,35.85 532.38,32.31 534.07,33.09Q541.17,36.38 540,165.35" style="vector-effect: non-scaling-stroke; fill: none; stroke: rgb(99, 110, 250); stroke-opacity: 1; stroke-width: 2px; opacity: 1;"/></g><g class="points"/><g class="text"/></g></g></g><g class="overplot"/><path class="xlines-above crisp" d="M0,0" style="fill: none;"/><path class="ylines-above crisp" d="M0,0" style="fill: none;"/><g class="overlines-above"/><g class="xaxislayer-above"><g class="xtick"><text text-anchor="start" x="0" y="401" transform="translate(80,0) rotate(90,0,395)" style="font-family: 'Open Sans', verdana, arial, sans-serif; font-size: 12px; fill: rgb(42, 63, 95); fill-opacity: 1; white-space: pre;">Thu-01-10</text></g><g class="xtick"><text text-anchor="start" x="0" y="401" transform="translate(97.8,0) rotate(90,0,395)" style="font-family: 'Open Sans', verdana, arial, sans-serif; font-size: 12px; fill: rgb(42, 63, 95); fill-opacity: 1; white-space: pre;">Sun-04-10</text></g><g class="xtick"><text text-anchor="start" x="0" y="401" transform="translate(115.6,0) rotate(90,0,395)" style="font-family: 'Open Sans', verdana, arial, sans-serif; font-size: 12px; fill: rgb(42, 63, 95); fill-opacity: 1; white-space: pre;">Wed-07-10</text></g><g class="xtick"><text text-anchor="start" x="0" y="401" transform="translate(133.41,0) rotate(90,0,395)" style="font-family: 'Open Sans', verdana, arial, sans-serif; font-size: 12px; fill: rgb(42, 63, 95); fill-opacity: 1; white-space: pre;">Sat-10-10</text></g><g class="xtick"><text text-anchor="start" x="0" y="401" transform="translate(151.20999999999998,0) rotate(90,0,395)" style="font-family: 'Open Sans', verdana, arial, sans-serif; font-size: 12px; fill: rgb(42, 63, 95); fill-opacity: 1; white-space: pre;">Tue-13-10</text></g><g class="xtick"><text text-anchor="start" x="0" y="401" transform="translate(169.01,0) rotate(90,0,395)" style="font-family: 'Open Sans', verdana, arial, sans-serif; font-size: 12px; fill: rgb(42, 63, 95); fill-opacity: 1; white-space: pre;">Fri-16-10</text></g><g class="xtick"><text text-anchor="start" x="0" y="401" transform="translate(186.81,0) rotate(90,0,395)" style="font-family: 'Open Sans', verdana, arial, sans-serif; font-size: 12px; fill: rgb(42, 63, 95); fill-opacity: 1; white-space: pre;">Mon-19-10</text></g><g class="xtick"><text text-anchor="start" x="0" y="401" transform="translate(204.62,0) rotate(90,0,395)" style="font-family: 'Open Sans', verdana, arial, sans-serif; font-size: 12px; fill: rgb(42, 63, 95); fill-opacity: 1; white-space: pre;">Thu-22-10</text></g><g class="xtick"><text text-anchor="start" x="0" y="401" transform="translate(222.42,0) rotate(90,0,395)" style="font-family: 'Open Sans', verdana, arial, sans-serif; font-size: 12px; fill: rgb(42, 63, 95); fill-opacity: 1; white-space: pre;">Sun-25-10</text></g><g class="xtick"><text text-anchor="start" x="0" y="401" transform="translate(240.22,0) rotate(90,0,395)" style="font-family: 'Open Sans', verdana, arial, sans-serif; font-size: 12px; fill: rgb(42, 63, 95); fill-opacity: 1; white-space: pre;">Wed-28-10</text></g><g class="xtick"><text text-anchor="start" x="0" y="401" transform="translate(258.02,0) rotate(90,0,395)" style="font-family: 'Open Sans', verdana, arial, sans-serif; font-size: 12px; fill: rgb(42, 63, 95); fill-opacity: 1; white-space: pre;">Sat-31-10</text></g><g class="xtick"><text text-anchor="start" x="0" y="401" transform="translate(275.82,0) rotate(90,0,395)" style="font-family: 'Open Sans', verdana, arial, sans-serif; font-size: 12px; fill: rgb(42, 63, 95); fill-opacity: 1; white-space: pre;">Tue-03-11</text></g><g class="xtick"><text text-anchor="start" x="0" y="401" transform="translate(293.63,0) rotate(90,0,395)" style="font-family: 'Open Sans', verdana, arial, sans-serif; font-size: 12px; fill: rgb(42, 63, 95); fill-opacity: 1; white-space: pre;">Fri-06-11</text></g><g class="xtick"><text text-anchor="start" x="0" y="401" transform="translate(311.43,0) rotate(90,0,395)" style="font-family: 'Open Sans', verdana, arial, sans-serif; font-size: 12px; fill: rgb(42, 63, 95); fill-opacity: 1; white-space: pre;">Mon-09-11</text></g><g class="xtick"><text text-anchor="start" x="0" y="401" transform="translate(329.23,0) rotate(90,0,395)" style="font-family: 'Open Sans', verdana, arial, sans-serif; font-size: 12px; fill: rgb(42, 63, 95); fill-opacity: 1; white-space: pre;">Thu-12-11</text></g><g class="xtick"><text text-anchor="start" x="0" y="401" transform="translate(347.03,0) rotate(90,0,395)" style="font-family: 'Open Sans', verdana, arial, sans-serif; font-size: 12px; fill: rgb(42, 63, 95); fill-opacity: 1; white-space: pre;">Sun-15-11</text></g><g class="xtick"><text text-anchor="start" x="0" y="401" transform="translate(364.84,0) rotate(90,0,395)" style="font-family: 'Open Sans', verdana, arial, sans-serif; font-size: 12px; fill: rgb(42, 63, 95); fill-opacity: 1; white-space: pre;">Wed-18-11</text></g><g class="xtick"><text text-anchor="start" x="0" y="401" transform="translate(382.64,0) rotate(90,0,395)" style="font-family: 'Open Sans', verdana, arial, sans-serif; font-size: 12px; fill: rgb(42, 63, 95); fill-opacity: 1; white-space: pre;">Sat-21-11</text></g><g class="xtick"><text text-anchor="start" x="0" y="401" transform="translate(400.44,0) rotate(90,0,395)" style="font-family: 'Open Sans', verdana, arial, sans-serif; font-size: 12px; fill: rgb(42, 63, 95); fill-opacity: 1; white-space: pre;">Tue-24-11</text></g><g class="xtick"><text text-anchor="start" x="0" y="401" transform="translate(418.24,0) rotate(90,0,395)" style="font-family: 'Open Sans', verdana, arial, sans-serif; font-size: 12px; fill: rgb(42, 63, 95); fill-opacity: 1; white-space: pre;">Fri-27-11</text></g><g class="xtick"><text text-anchor="start" x="0" y="401" transform="translate(436.04,0) rotate(90,0,395)" style="font-family: 'Open Sans', verdana, arial, sans-serif; font-size: 12px; fill: rgb(42, 63, 95); fill-opacity: 1; white-space: pre;">Mon-30-11</text></g><g class="xtick"><text text-anchor="start" x="0" y="401" transform="translate(453.85,0) rotate(90,0,395)" style="font-family: 'Open Sans', verdana, arial, sans-serif; font-size: 12px; fill: rgb(42, 63, 95); fill-opacity: 1; white-space: pre;">Thu-03-12</text></g><g class="xtick"><text text-anchor="start" x="0" y="401" transform="translate(471.65,0) rotate(90,0,395)" style="font-family: 'Open Sans', verdana, arial, sans-serif; font-size: 12px; fill: rgb(42, 63, 95); fill-opacity: 1; white-space: pre;">Sun-06-12</text></g><g class="xtick"><text text-anchor="start" x="0" y="401" transform="translate(489.45,0) rotate(90,0,395)" style="font-family: 'Open Sans', verdana, arial, sans-serif; font-size: 12px; fill: rgb(42, 63, 95); fill-opacity: 1; white-space: pre;">Wed-09-12</text></g><g class="xtick"><text text-anchor="start" x="0" y="401" transform="translate(507.25,0) rotate(90,0,395)" style="font-family: 'Open Sans', verdana, arial, sans-serif; font-size: 12px; fill: rgb(42, 63, 95); fill-opacity: 1; white-space: pre;">Sat-12-12</text></g><g class="xtick"><text text-anchor="start" x="0" y="401" transform="translate(525.05,0) rotate(90,0,395)" style="font-family: 'Open Sans', verdana, arial, sans-serif; font-size: 12px; fill: rgb(42, 63, 95); fill-opacity: 1; white-space: pre;">Tue-15-12</text></g><g class="xtick"><text text-anchor="start" x="0" y="401" transform="translate(542.86,0) rotate(90,0,395)" style="font-family: 'Open Sans', verdana, arial, sans-serif; font-size: 12px; fill: rgb(42, 63, 95); fill-opacity: 1; white-space: pre;">Fri-18-12</text></g><g class="xtick"><text text-anchor="start" x="0" y="401" transform="translate(560.6600000000001,0) rotate(90,0,395)" style="font-family: 'Open Sans', verdana, arial, sans-serif; font-size: 12px; fill: rgb(42, 63, 95); fill-opacity: 1; white-space: pre;">Mon-21-12</text></g><g class="xtick"><text text-anchor="start" x="0" y="401" transform="translate(578.46,0) rotate(90,0,395)" style="font-family: 'Open Sans', verdana, arial, sans-serif; font-size: 12px; fill: rgb(42, 63, 95); fill-opacity: 1; white-space: pre;">Thu-24-12</text></g><g class="xtick"><text text-anchor="start" x="0" y="401" transform="translate(596.26,0) rotate(90,0,395)" style="font-family: 'Open Sans', verdana, arial, sans-serif; font-size: 12px; fill: rgb(42, 63, 95); fill-opacity: 1; white-space: pre;">Sun-27-12</text></g><g class="xtick"><text text-anchor="start" x="0" y="401" transform="translate(614.07,0) rotate(90,0,395)" style="font-family: 'Open Sans', verdana, arial, sans-serif; font-size: 12px; fill: rgb(42, 63, 95); fill-opacity: 1; white-space: pre;">Wed-30-12</text></g></g><g class="yaxislayer-above"><g class="ytick"><text text-anchor="end" x="79" y="4.199999999999999" transform="translate(0,374.01)" style="font-family: 'Open Sans', verdana, arial, sans-serif; font-size: 12px; fill: rgb(42, 63, 95); fill-opacity: 1; white-space: pre;">0</text></g><g class="ytick"><text text-anchor="end" x="79" y="4.199999999999999" transform="translate(0,307.31)" style="font-family: 'Open Sans', verdana, arial, sans-serif; font-size: 12px; fill: rgb(42, 63, 95); fill-opacity: 1; white-space: pre;">50k</text></g><g class="ytick"><text text-anchor="end" x="79" y="4.199999999999999" transform="translate(0,240.62)" style="font-family: 'Open Sans', verdana, arial, sans-serif; font-size: 12px; fill: rgb(42, 63, 95); fill-opacity: 1; white-space: pre;">100k</text></g><g class="ytick"><text text-anchor="end" x="79" y="4.199999999999999" transform="translate(0,173.92000000000002)" style="font-family: 'Open Sans', verdana, arial, sans-serif; font-size: 12px; fill: rgb(42, 63, 95); fill-opacity: 1; white-space: pre;">150k</text></g><g class="ytick"><text text-anchor="end" x="79" y="4.199999999999999" transform="translate(0,107.22)" style="font-family: 'Open Sans', verdana, arial, sans-serif; font-size: 12px; fill: rgb(42, 63, 95); fill-opacity: 1; white-space: pre;">200k</text></g></g><g class="overaxes-above"/></g></g><g class="polarlayer"/><g class="ternarylayer"/><g class="geolayer"/><g class="funnelarealayer"/><g class="pielayer"/><g class="treemaplayer"/><g class="sunburstlayer"/><g class="glimages"/><defs id="topdefs-041cf7"><g class="clips"/></defs><g class="layer-above"><g class="imagelayer"/><g class="shapelayer"/></g><g class="infolayer"><g class="g-gtitle"><text class="gtitle" x="35" y="50" text-anchor="start" dy="0em" style="font-family: 'Open Sans', verdana, arial, sans-serif; font-size: 17px; fill: rgb(42, 63, 95); opacity: 1; font-weight: normal; white-space: pre;">Transaction Value</text></g><g class="g-xtitle"><text class="xtitle" x="350" y="487.70625" text-anchor="middle" style="font-family: 'Open Sans', verdana, arial, sans-serif; font-size: 14px; fill: rgb(42, 63, 95); opacity: 1; font-weight: normal; white-space: pre;">Date</text></g><g class="g-ytitle"><text class="ytitle" transform="rotate(-90,24.200000000000003,244)" x="24.200000000000003" y="244" text-anchor="middle" style="font-family: 'Open Sans', verdana, arial, sans-serif; font-size: 14px; fill: rgb(42, 63, 95); opacity: 1; font-weight: normal; white-space: pre;">Value</text></g></g></svg>